<svg width="56" height="55" viewBox="0 0 56 55" fill="none" xmlns="http://www.w3.org/2000/svg">
<path fill-rule="evenodd" clip-rule="evenodd" d="M28.0733 2.57031C13.9492 2.57031 2.49609 14.0209 2.49609 28.1475C2.49609 39.4486 9.82473 49.0356 19.9873 52.418C21.2652 52.6552 21.7345 51.8632 21.7345 51.1876C21.7345 50.5777 21.7107 48.5629 21.6997 46.4257C14.5841 47.9729 13.0827 43.4079 13.0827 43.4079C11.9192 40.4515 10.2428 39.6654 10.2428 39.6654C7.92173 38.078 10.4177 38.111 10.4177 38.111C12.9857 38.291 14.3385 40.7467 14.3385 40.7467C16.6197 44.6561 20.3219 43.5261 21.7815 42.8729C22.011 41.2198 22.6739 40.0911 23.4053 39.4524C17.7243 38.8065 11.7519 36.6129 11.7519 26.8125C11.7519 24.02 12.7514 21.7384 14.3876 19.9468C14.1216 19.303 13.2461 16.7015 14.635 13.1785C14.635 13.1785 16.7823 12.4911 21.6701 15.8002C23.7107 15.2331 25.8992 14.9481 28.0733 14.9383C30.2461 14.9481 32.4358 15.2323 34.4803 15.7994C39.3621 12.4902 41.5069 13.1776 41.5069 13.1776C42.8991 16.7003 42.0236 19.3021 41.7581 19.9459C43.398 21.7375 44.3904 24.0192 44.3904 26.8116C44.3904 36.6354 38.407 38.798 32.7115 39.4316C33.6294 40.2253 34.4468 41.7823 34.4468 44.1682C34.4468 47.5904 34.4171 50.3447 34.4171 51.1872C34.4171 51.8678 34.878 52.6654 36.174 52.4142C46.3307 49.0284 53.6509 39.4443 53.6509 28.1475C53.6504 14.0218 42.1986 2.57031 28.0733 2.57031Z" fill="#D5FF3F"/>
<path d="M12.1815 39.2931C12.1252 39.4201 11.9253 39.4583 11.7432 39.3714C11.5568 39.2884 11.453 39.1152 11.5132 38.9877C11.5682 38.8564 11.7686 38.8204 11.9537 38.9081C12.14 38.9915 12.2459 39.1664 12.1811 39.2935L12.1815 39.2931ZM13.2175 40.4489C13.096 40.562 12.8575 40.5095 12.6957 40.3303C12.528 40.1524 12.4967 39.914 12.6208 39.7992C12.747 39.6865 12.9782 39.7399 13.146 39.9178C13.3128 40.0982 13.3459 40.3346 13.218 40.4494L13.2175 40.4489ZM14.2264 41.9216C14.0697 42.0309 13.813 41.9288 13.6546 41.7014C13.4979 41.4735 13.4979 41.2003 13.6589 41.0915C13.8169 40.9822 14.0697 41.0809 14.2307 41.3062C14.3865 41.537 14.3865 41.8106 14.2264 41.9216ZM15.6076 43.3451C15.4678 43.4997 15.1688 43.4582 14.9503 43.2477C14.7271 43.0415 14.6648 42.7479 14.805 42.5938C14.9473 42.4388 15.2476 42.482 15.4674 42.6912C15.6906 42.897 15.758 43.191 15.6085 43.3447L15.6076 43.3451ZM17.5136 44.1715C17.4513 44.3718 17.1642 44.4629 16.874 44.3773C16.5847 44.2897 16.3954 44.0554 16.4547 43.853C16.514 43.6509 16.8033 43.5565 17.0951 43.6476C17.3844 43.7348 17.5737 43.9678 17.5136 44.1715ZM19.6072 44.3244C19.6144 44.5353 19.3687 44.7098 19.065 44.7141C18.7588 44.7213 18.511 44.5501 18.5081 44.3426C18.5081 44.1296 18.7486 43.9572 19.0544 43.9512C19.3581 43.9457 19.6076 44.1152 19.6076 44.324L19.6072 44.3244ZM21.5546 43.9932C21.5911 44.1986 21.3797 44.4099 21.0777 44.4663C20.7812 44.5213 20.5059 44.3934 20.4678 44.1897C20.4314 43.9788 20.6466 43.7674 20.943 43.7128C21.2455 43.6607 21.5165 43.7844 21.5546 43.9932Z" fill="#D5FF3F"/>
</svg>
