<svg width="58" height="58" viewBox="0 0 58 58" fill="none" xmlns="http://www.w3.org/2000/svg">
<path d="M29 22.0922C27.5898 22.0922 26.2113 22.5103 25.0388 23.2938C23.8663 24.0772 22.9524 25.1908 22.4127 26.4936C21.8731 27.7965 21.7319 29.2301 22.007 30.6132C22.2821 31.9962 22.9612 33.2667 23.9583 34.2638C24.9555 35.261 26.2259 35.9401 27.609 36.2152C28.9921 36.4903 30.4257 36.3491 31.7285 35.8094C33.0314 35.2698 34.1449 34.3559 34.9284 33.1834C35.7118 32.0109 36.13 30.6323 36.13 29.2222C36.13 28.2858 35.9456 27.3587 35.5873 26.4936C35.2289 25.6286 34.7038 24.8426 34.0417 24.1805C33.3796 23.5184 32.5936 22.9932 31.7285 22.6349C30.8635 22.2766 29.9363 22.0922 29 22.0922ZM57.5488 15.0484C57.5336 12.8282 57.1248 10.6283 56.3413 8.55092C55.7642 7.03079 54.8713 5.65031 53.7216 4.50058C52.5719 3.35084 51.1914 2.45798 49.6713 1.88092C47.5939 1.09738 45.3939 0.688543 43.1738 0.673418C39.465 0.472168 38.3725 0.472168 29 0.472168C19.6275 0.472168 18.535 0.472168 14.8263 0.673418C12.6061 0.688543 10.4061 1.09738 8.32875 1.88092C6.80862 2.45798 5.42814 3.35084 4.27841 4.50058C3.12867 5.65031 2.23581 7.03079 1.65875 8.55092C0.875208 10.6283 0.466375 12.8282 0.45125 15.0484C0.25 18.7572 0.25 19.8497 0.25 29.2222C0.25 38.5947 0.25 39.6872 0.45125 43.3959C0.482196 45.6239 0.890476 47.8306 1.65875 49.9222C2.23326 51.4353 3.12537 52.8078 4.275 53.9472C5.41981 55.1038 6.80324 55.9967 8.32875 56.5634C10.4061 57.347 12.6061 57.7558 14.8263 57.7709C18.535 57.9722 19.6275 57.9722 29 57.9722C38.3725 57.9722 39.465 57.9722 43.1738 57.7709C45.3939 57.7558 47.5939 57.347 49.6713 56.5634C51.1968 55.9967 52.5802 55.1038 53.725 53.9472C54.8746 52.8078 55.7667 51.4353 56.3413 49.9222C57.124 47.8346 57.5328 45.6254 57.5488 43.3959C57.75 39.6872 57.75 38.5947 57.75 29.2222C57.75 19.8497 57.75 18.7572 57.5488 15.0484ZM50.2462 38.0484C50.154 39.8226 49.7753 41.5702 49.125 43.2234C48.5669 44.6025 47.7371 45.8553 46.6851 46.9073C45.6331 47.9593 44.3803 48.789 43.0013 49.3472C41.3323 49.9613 39.575 50.3011 37.7975 50.3534C35.5263 50.3534 34.9225 50.3534 29 50.3534C23.0775 50.3534 22.4737 50.3534 20.2025 50.3534C18.425 50.3011 16.6677 49.9613 14.9988 49.3472C13.573 48.8174 12.2855 47.9721 11.2325 46.8747C10.1908 45.8433 9.3863 44.5973 8.875 43.2234C8.25848 41.5563 7.92799 39.7969 7.8975 38.0197C7.8975 35.7484 7.8975 35.1447 7.8975 29.2222C7.8975 23.2997 7.8975 22.6959 7.8975 20.4247C7.92799 18.6474 8.25848 16.8881 8.875 15.2209C9.40481 13.7952 10.25 12.5077 11.3475 11.4547C12.3835 10.4186 13.6281 9.61494 14.9988 9.09717C16.6677 8.48308 18.425 8.14327 20.2025 8.09092C22.4737 8.09092 23.0775 8.09092 29 8.09092C34.9225 8.09092 35.5263 8.09092 37.7975 8.09092C39.575 8.14327 41.3323 8.48308 43.0013 9.09717C44.427 9.62698 45.7145 10.4722 46.7675 11.5697C47.8092 12.6011 48.6137 13.847 49.125 15.2209C49.7391 16.8898 50.0789 18.6471 50.1313 20.4247C50.1313 22.6959 50.1313 23.2997 50.1313 29.2222C50.1313 35.1447 50.3325 35.7484 50.2462 38.0197V38.0484ZM45.6463 16.6584C45.3039 15.7297 44.7642 14.8864 44.0644 14.1865C43.3645 13.4867 42.5212 12.947 41.5925 12.6047C40.3174 12.1627 38.9744 11.9486 37.625 11.9722C35.3825 11.9722 34.75 11.9722 29 11.9722C23.25 11.9722 22.6175 11.9722 20.375 11.9722C19.0188 11.9854 17.6756 12.2385 16.4075 12.7197C15.493 13.0464 14.6586 13.5641 13.9597 14.2382C13.2607 14.9124 12.7133 15.7276 12.3538 16.6297C11.9362 17.9101 11.7323 19.2505 11.75 20.5972C11.75 22.8397 11.75 23.4722 11.75 29.2222C11.75 34.9722 11.75 35.6047 11.75 37.8472C11.7785 39.2019 12.0311 40.5425 12.4975 41.8147C12.8398 42.7433 13.3795 43.5867 14.0794 44.2866C14.7792 44.9864 15.6226 45.5261 16.5513 45.8684C17.7779 46.3195 19.0688 46.5719 20.375 46.6159C22.6175 46.6159 23.25 46.6159 29 46.6159C34.75 46.6159 35.3825 46.6159 37.625 46.6159C38.9812 46.6027 40.3244 46.3496 41.5925 45.8684C42.5212 45.5261 43.3645 44.9864 44.0644 44.2866C44.7642 43.5867 45.3039 42.7433 45.6463 41.8147C46.1274 40.5466 46.3805 39.2034 46.3937 37.8472C46.3937 35.6047 46.3937 34.9722 46.3937 29.2222C46.3937 23.4722 46.3937 22.8397 46.3937 20.5972C46.3946 19.2396 46.141 17.8939 45.6463 16.6297V16.6584ZM29 40.2047C27.5591 40.2047 26.1324 39.9204 24.8015 39.3681C23.4707 38.8158 22.2619 38.0064 21.2443 36.9862C20.2268 35.966 19.4206 34.7551 18.8718 33.4228C18.323 32.0905 18.0425 30.6631 18.0462 29.2222C18.0463 27.0488 18.6911 24.9243 19.8992 23.1176C21.1072 21.311 22.8241 19.9033 24.8326 19.0729C26.8411 18.2426 29.0507 18.0267 31.1819 18.4528C33.3131 18.8789 35.2699 19.9278 36.8047 21.4666C38.3395 23.0054 39.3832 24.965 39.8037 27.0973C40.2242 29.2296 40.0026 31.4387 39.167 33.4449C38.3313 35.4512 36.9192 37.1645 35.1094 38.3678C33.2995 39.5711 31.1733 40.2104 29 40.2047ZM40.5 20.3959C39.8645 20.3286 39.2763 20.0286 38.8488 19.5535C38.4214 19.0784 38.1849 18.4619 38.1849 17.8228C38.1849 17.1837 38.4214 16.5672 38.8488 16.0921C39.2763 15.617 39.8645 15.3169 40.5 15.2497C41.1355 15.3169 41.7237 15.617 42.1512 16.0921C42.5786 16.5672 42.8151 17.1837 42.8151 17.8228C42.8151 18.4619 42.5786 19.0784 42.1512 19.5535C41.7237 20.0286 41.1355 20.3286 40.5 20.3959Z" fill="#D5FF3F"/>
</svg>
