<svg width="45" height="47" viewBox="0 0 45 47" fill="none" xmlns="http://www.w3.org/2000/svg">
<path d="M41.6367 0.92683H3.37066C2.94051 0.920856 2.5134 0.999674 2.11372 1.15878C1.71404 1.31789 1.34961 1.55418 1.04126 1.85414C0.732901 2.15411 0.486656 2.51188 0.316583 2.90702C0.14651 3.30216 0.055941 3.72693 0.0500488 4.15708V42.8749C0.055941 43.3051 0.14651 43.7299 0.316583 44.125C0.486656 44.5201 0.732901 44.8779 1.04126 45.1779C1.34961 45.4778 1.71404 45.7141 2.11372 45.8732C2.5134 46.0323 2.94051 46.1112 3.37066 46.1052H41.6367C42.0669 46.1112 42.494 46.0323 42.8937 45.8732C43.2934 45.7141 43.6578 45.4778 43.9661 45.1779C44.2745 44.8779 44.5207 44.5201 44.6908 44.125C44.8609 43.7299 44.9515 43.3051 44.9573 42.8749V4.15708C44.9515 3.72693 44.8609 3.30216 44.6908 2.90702C44.5207 2.51188 44.2745 2.15411 43.9661 1.85414C43.6578 1.55418 43.2934 1.31789 42.8937 1.15878C42.494 0.999674 42.0669 0.920856 41.6367 0.92683ZM13.6713 38.7411H6.89457V18.4109H13.6713V38.7411ZM10.2829 15.5646C9.34835 15.5646 8.45203 15.1934 7.79117 14.5325C7.1303 13.8716 6.75904 12.9753 6.75904 12.0407C6.75904 11.1061 7.1303 10.2098 7.79117 9.54893C8.45203 8.88806 9.34835 8.5168 10.2829 8.5168C10.7792 8.46051 11.2818 8.50969 11.7577 8.6611C12.2337 8.81252 12.6723 9.06275 13.0448 9.39543C13.4174 9.7281 13.7154 10.1357 13.9195 10.5916C14.1236 11.0474 14.2291 11.5413 14.2291 12.0407C14.2291 12.5402 14.1236 13.034 13.9195 13.4898C13.7154 13.9457 13.4174 14.3533 13.0448 14.686C12.6723 15.0187 12.2337 15.2689 11.7577 15.4203C11.2818 15.5717 10.7792 15.6209 10.2829 15.5646ZM38.1128 38.7411H31.3361V27.8305C31.3361 25.0973 30.3647 23.3127 27.9025 23.3127C27.1405 23.3183 26.3985 23.5573 25.7765 23.9976C25.1545 24.4378 24.6824 25.0581 24.4238 25.7749C24.247 26.3059 24.1704 26.865 24.1979 27.4239V38.7185H17.4211C17.4211 38.7185 17.4211 20.2406 17.4211 18.3883H24.1979V21.2571C24.8135 20.1889 25.7089 19.3088 26.7876 18.7118C27.8663 18.1147 29.0875 17.8232 30.3196 17.8687C34.8374 17.8687 38.1128 20.7827 38.1128 27.0399V38.7411Z" fill="#D5FF3F"/>
</svg>
