<svg width="23" height="23" viewBox="0 0 23 23" fill="none" xmlns="http://www.w3.org/2000/svg">
<path d="M20.5452 11.8483C20.6368 11.6251 20.6368 11.3748 20.5452 11.1517C20.5015 11.0391 20.4361 10.9363 20.3527 10.8492L13.936 4.43249C13.8505 4.34702 13.7491 4.27922 13.6374 4.23297C13.5257 4.18671 13.406 4.1629 13.2852 4.1629C13.041 4.1629 12.8069 4.25988 12.6343 4.43249C12.5489 4.51796 12.4811 4.61942 12.4348 4.73109C12.3885 4.84276 12.3647 4.96245 12.3647 5.08332C12.3647 5.32743 12.4617 5.56154 12.6343 5.73415L17.4927 10.5833H3.20182C2.95871 10.5833 2.72555 10.6799 2.55364 10.8518C2.38173 11.0237 2.28516 11.2569 2.28516 11.5C2.28516 11.7431 2.38173 11.9763 2.55364 12.1482C2.72555 12.3201 2.95871 12.4167 3.20182 12.4167H17.4927L12.6343 17.2658C12.5484 17.351 12.4802 17.4524 12.4337 17.5641C12.3871 17.6758 12.3632 17.7956 12.3632 17.9167C12.3632 18.0377 12.3871 18.1575 12.4337 18.2692C12.4802 18.3809 12.5484 18.4823 12.6343 18.5675C12.7195 18.6534 12.8209 18.7216 12.9326 18.7681C13.0443 18.8147 13.1641 18.8386 13.2852 18.8386C13.4062 18.8386 13.526 18.8147 13.6377 18.7681C13.7494 18.7216 13.8508 18.6534 13.936 18.5675L20.3527 12.1508C20.4361 12.0636 20.5015 11.9608 20.5452 11.8483Z" fill="white"/>
</svg>
