<svg width="32" height="26" viewBox="0 0 32 26" fill="none" xmlns="http://www.w3.org/2000/svg">
<g clip-path="url(#clip0_1_767)">
<path d="M3.16843 4.75095C3.16843 3.00397 4.58878 1.58362 6.33576 1.58362H25.3397C27.0867 1.58362 28.5071 3.00397 28.5071 4.75095V17.4203H25.3397V4.75095H6.33576V17.4203H3.16843V4.75095ZM0.00109863 19.9541C0.00109863 19.4295 0.426709 19.0039 0.951298 19.0039H30.7242C31.2488 19.0039 31.6744 19.4295 31.6744 19.9541C31.6744 22.0525 29.972 23.7549 27.8736 23.7549H3.8019C1.70354 23.7549 0.00109863 22.0525 0.00109863 19.9541ZM13.9077 10.3433L12.3735 11.8774L13.9077 13.4116C14.3729 13.8768 14.3729 14.6291 13.9077 15.0893C13.4425 15.5496 12.6902 15.5545 12.23 15.0893L9.85447 12.7138C9.38927 12.2486 9.38927 11.4964 9.85447 11.0361L12.23 8.66062C12.6952 8.19542 13.4474 8.19542 13.9077 8.66062C14.3679 9.12582 14.3729 9.87806 13.9077 10.3383V10.3433ZM19.4505 8.66062L21.826 11.0361C22.2912 11.5013 22.2912 12.2536 21.826 12.7138L19.4505 15.0893C18.9853 15.5545 18.233 15.5545 17.7728 15.0893C17.3125 14.6241 17.3076 13.8719 17.7728 13.4116L19.307 11.8774L17.7728 10.3433C17.3076 9.87807 17.3076 9.12582 17.7728 8.66557C18.238 8.20532 18.9902 8.20037 19.4505 8.66557V8.66062Z" fill="#161B22"/>
</g>
<defs>
<clipPath id="clip0_1_767">
<rect width="31.6733" height="25.3386" fill="white" transform="translate(0.00109863)"/>
</clipPath>
</defs>
</svg>
